HIERARCHY
ROOT Hips
{
 OFFSET 0.000000 0.000000 0.000000
 CHANNELS 6 Xposition Yposition Zposition Yrotation Xrotation Zrotation
 JOINT Chest
 {
  OFFSET 0.000000 9.585900 0.002600
  CHANNELS 3 Yrotation Xrotation Zrotation
  JOINT Chest2
  {
   OFFSET 0.000000 9.601200 -0.005300
   CHANNELS 3 Yrotation Xrotation Zrotation
   JOINT Chest3
   {
    OFFSET 0.000000 9.561800 0.000000
    CHANNELS 3 Yrotation Xrotation Zrotation
    JOINT Chest4
    {
     OFFSET 0.000000 9.552100 0.000000
     CHANNELS 3 Yrotation Xrotation Zrotation
     JOINT Neck
     {
      OFFSET 0.000000 14.453000 0.000000
      CHANNELS 3 Yrotation Xrotation Zrotation
      JOINT Head
      {
       OFFSET 0.000000 8.936500 -0.011300
       CHANNELS 3 Yrotation Xrotation Zrotation
       End Site
       {
        OFFSET 0.000000 17.073600 -0.006000
       }
      }
     }
     JOINT RightCollar
     {
      OFFSET -2.921100 9.558500 0.000000
      CHANNELS 3 Yrotation Xrotation Zrotation
      JOINT RightShoulder
      {
       OFFSET -13.519700 0.000000 0.000000
       CHANNELS 3 Yrotation Xrotation Zrotation
       JOINT RightElbow
       {
        OFFSET 0.000000 -29.696600 0.000000
        CHANNELS 3 Yrotation Xrotation Zrotation
        JOINT RightWrist
        {
         OFFSET 0.000000 -24.004700 0.000000
         CHANNELS 3 Yrotation Xrotation Zrotation
         End Site
         {
          OFFSET 0.000000 -17.728500 0.000000
         }
        }
       }
      }
     }
     JOINT LeftCollar
     {
      OFFSET 2.921100 9.558500 0.000000
      CHANNELS 3 Yrotation Xrotation Zrotation
      JOINT LeftShoulder
      {
       OFFSET 13.519700 0.000000 0.000000
       CHANNELS 3 Yrotation Xrotation Zrotation
       JOINT LeftElbow
       {
        OFFSET 0.000000 -29.696600 0.000000
        CHANNELS 3 Yrotation Xrotation Zrotation
        JOINT LeftWrist
        {
         OFFSET 0.000000 -24.004700 0.000000
         CHANNELS 3 Yrotation Xrotation Zrotation
         End Site
         {
          OFFSET 0.000000 -17.728500 0.000000
         }
        }
       }
      }
     }
    }
   }
  }
 }
 JOINT RightHip
 {
  OFFSET -7.771700 -0.012900 -0.001300
  CHANNELS 3 Yrotation Xrotation Zrotation
  JOINT RightKnee
  {
   OFFSET 0.000000 -40.869800 0.001200
   CHANNELS 3 Yrotation Xrotation Zrotation
   JOINT RightAnkle
   {
    OFFSET 0.000000 -39.717900 0.002100
    CHANNELS 3 Yrotation Xrotation Zrotation
    JOINT RightToe
    {
     OFFSET 0.000000 -4.965400 11.033500
     CHANNELS 3 Yrotation Xrotation Zrotation
     End Site
     {
      OFFSET 0.000000 -1.423100 5.872300
     }
    }
   }
  }
 }
 JOINT LeftHip
 {
  OFFSET 7.771700 -0.012900 -0.001300
  CHANNELS 3 Yrotation Xrotation Zrotation
  JOINT LeftKnee
  {
   OFFSET 0.000000 -40.869800 0.001200
   CHANNELS 3 Yrotation Xrotation Zrotation
   JOINT LeftAnkle
   {
    OFFSET 0.000000 -39.717900 0.002100
    CHANNELS 3 Yrotation Xrotation Zrotation
    JOINT LeftToe
    {
     OFFSET 0.000000 -4.965400 11.033500
     CHANNELS 3 Yrotation Xrotation Zrotation
     End Site
     {
      OFFSET 0.000000 -1.423100 5.872300
     }
    }
   }
  }
 }
}
MOTION
Frames: 5
Frame Time: 0.008333
-112.283743 62.047001 19.156352 174.417467 -51.756717 -0.031569 4.602088 26.854923 1.503129 0.648443 4.597316 0.234477 1.040745 7.269315 0.385056 3.405717 21.810738 1.659173 1.498690 15.943988 1.273768 2.357425 -6.154609 1.858204 4.859762 5.730389 4.600788 -3.541379 -8.531949 -14.063686 -80.450700 -52.249663 122.083868 -3.344103 16.504780 -7.710339 -10.675289 3.265896 -1.114789 -4.745493 -8.699813 17.145803 89.616620 -67.114183 -119.566885 12.611851 6.434347 6.335659 4.429429 -15.107731 -4.776337 -2.798663 58.704066 -7.372529 -0.212416 -4.848204 10.326178 0.260101 -0.737883 0.121492 -4.032037 -11.754449 3.041859 29.851074 75.125669 31.929624 1.368120 -11.308564 -5.959410 0.300266 0.788205 0.150181
-112.286852 62.045407 19.155983 174.446999 -51.734041 -0.041904 4.579330 26.832954 1.486481 0.648901 4.592444 0.230719 1.037266 7.267122 0.386126 3.394975 21.799514 1.643219 1.541967 15.942432 1.290036 2.504605 -6.214410 1.853298 4.876706 5.747599 4.614401 -3.475197 -8.560123 -14.181124 -80.592557 -52.671642 122.006807 -3.145105 16.873933 -8.007250 -10.673545 3.205514 -1.149664 -4.742593 -8.613495 17.183814 90.478228 -68.040613 -119.900398 11.719749 6.741106 6.416916 4.436050 -15.129019 -4.783628 -2.817493 58.710983 -7.388782 -0.240763 -4.848236 10.325314 0.277540 -0.739961 0.131332 -4.046934 -11.779809 3.035866 29.841027 75.127063 31.916635 1.346500 -11.316582 -5.955872 0.310178 0.795359 0.150577
-112.288685 62.044845 19.154695 174.459319 -51.719924 -0.046230 4.569283 26.817094 1.474567 0.647609 4.579766 0.224687 1.037470 7.273025 0.392816 3.371044 21.745157 1.607604 1.601062 15.982340 1.323225 2.646672 -6.292170 1.852619 4.930091 5.786936 4.642679 -3.441501 -8.566620 -14.298182 -80.853255 -53.177550 122.011285 -2.911407 17.262272 -8.232643 -10.635410 3.199651 -1.168767 -4.769504 -8.544046 17.214367 91.513911 -69.100522 -120.313229 10.658202 6.942679 6.400819 4.436561 -15.141866 -4.788782 -2.816789 58.714231 -7.388752 -0.246563 -4.851144 10.323380 0.279745 -0.740209 0.135504 -4.051083 -11.794986 3.036663 29.839197 75.128815 31.911182 1.335844 -11.321353 -5.954458 0.311996 0.797797 0.152313
-112.289959 62.043982 19.153509 174.466339 -51.704337 -0.050249 4.569762 26.791783 1.457769 0.643182 4.582823 0.236930 1.034322 7.255883 0.385654 3.369227 21.734068 1.598094 1.664966 15.958239 1.344456 2.759881 -6.360391 1.863398 5.007966 5.758531 4.669753 -3.467740 -8.530695 -14.394428 -81.253555 -53.806003 122.113938 -2.625895 17.685674 -8.362170 -10.590203 3.167624 -1.187785 -4.801353 -8.488808 17.242488 92.943999 -70.329918 -121.036542 9.439130 6.995131 6.304089 4.442251 -15.157141 -4.792770 -2.823858 58.716643 -7.390399 -0.245271 -4.850934 10.323624 0.280204 -0.742381 0.135197 -4.054006 -11.811273 3.038436 29.847187 75.130382 31.916152 1.334357 -11.326915 -5.950911 0.308207 0.801302 0.150479
-112.291563 62.042984 19.152247 174.473967 -51.688702 -0.053011 4.570470 26.774220 1.446497 0.637285 4.572444 0.235623 1.038161 7.228092 0.368688 3.376327 21.743634 1.608222 1.762855 15.864465 1.364375 2.829354 -6.391435 1.895126 5.021548 5.775713 4.695196 -3.462998 -8.528635 -14.425830 -81.806615 -54.578031 122.333279 -2.277469 18.144499 -8.389602 -10.540588 3.158867 -1.185406 -4.834030 -8.480761 17.264888 95.112036 -71.751005 -122.387432 8.070416 6.889639 6.131770 4.451522 -15.172756 -4.796784 -2.824443 58.721593 -7.389405 -0.249372 -4.850440 10.330009 0.277957 -0.745722 0.132142 -4.054683 -11.827304 3.038253 29.839377 75.132181 31.909924 1.329660 -11.332703 -5.951075 0.312258 0.805325 0.151593
